<svg width="28" height="28" viewBox="0 0 28 28" fill="none" xmlns="http://www.w3.org/2000/svg">
<path d="M4.73828 13.2148L12.7422 16.3438C13.2812 16.5547 13.9258 16.8125 14.4531 16.8125C14.9688 16.8125 15.625 16.5547 16.1641 16.3438L24.1562 13.2148C24.6016 13.0391 24.8945 12.6406 24.8945 12.207C24.8945 11.5156 24.3906 11 23.7109 11C23.3594 11 22.8906 11.1992 22.5977 11.3047L13.6211 14.832H15.2734L6.29688 11.3047C6.00391 11.1992 5.54688 11 5.18359 11C4.50391 11 4 11.5156 4 12.207C4 12.6406 4.29297 13.0391 4.73828 13.2148Z" fill="black"/>
</svg>
