<svg width="28" height="28" viewBox="0 0 28 28" fill="none" xmlns="http://www.w3.org/2000/svg">
<path d="M4.06641 24.3555C4.37109 24.3555 4.62891 24.2383 4.83984 24.0391L14.1211 14.9688C14.3438 14.7461 14.4609 14.4766 14.4609 14.1836C14.4609 13.8789 14.3438 13.5859 14.1211 13.3984L4.82812 4.31641C4.62891 4.11719 4.37109 4 4.06641 4C3.45703 4 3 4.46875 3 5.07812C3 5.35938 3.11719 5.64062 3.30469 5.83984L12.4805 14.8047V13.5508L3.30469 22.5273C3.11719 22.7266 3 22.9961 3 23.2891C3 23.8984 3.45703 24.3555 4.06641 24.3555ZM14.543 24.3555C14.8477 24.3555 15.1055 24.2383 15.3047 24.0391L24.5859 14.9688C24.8086 14.7461 24.9375 14.4766 24.9375 14.1836C24.9375 13.8789 24.8086 13.5859 24.5859 13.3984L15.3047 4.31641C15.0938 4.11719 14.8477 4 14.543 4C13.9336 4 13.4648 4.46875 13.4648 5.07812C13.4648 5.35938 13.5938 5.64062 13.7812 5.83984L22.9453 14.8047V13.5508L13.7812 22.5273C13.5938 22.7266 13.4648 22.9961 13.4648 23.2891C13.4648 23.8984 13.9336 24.3555 14.543 24.3555Z" fill="black"/>
</svg>
