<svg width="28" height="28" viewBox="0 0 28 28" xmlns="http://www.w3.org/2000/svg">
<path d="M2 18.4883C2 21.957 4.16797 24.8633 7.07422 24.8633H9.13672C7.02734 23.3281 6.16016 21.0078 6.16016 18.3711C6.17188 15.4414 7.30859 13.3438 8.31641 12.0781H6.64062C4.02734 12.0781 2 14.8906 2 18.4883ZM7.77734 18.3945C7.77734 22.6719 11.1172 25.9766 16.5664 25.9766H18.1602C19.6719 25.9766 20.7969 25.8711 21.4297 25.6953C22.3438 25.4727 23.2227 24.9102 23.2227 23.8086C23.2227 23.3516 23.1055 23.0234 22.9648 22.7773C22.8711 22.625 22.8945 22.5078 23.0352 22.4492C23.7617 22.1445 24.3594 21.4648 24.3594 20.5391C24.3594 20.0117 24.207 19.543 23.9492 19.2266C23.8203 19.0508 23.832 18.8867 24.0547 18.7695C24.5703 18.4648 24.9453 17.8086 24.9453 17.0469C24.9453 16.4961 24.7695 15.9219 24.4648 15.6406C24.2773 15.4766 24.3125 15.3594 24.5 15.1836C24.8633 14.8789 25.0977 14.3516 25.0977 13.6836C25.0977 12.5586 24.2188 11.6328 23.0586 11.6328H18.9336C17.8906 11.6328 17.1992 11.0938 17.1992 10.2266C17.1992 8.66797 19.1562 5.78516 19.1562 3.72266C19.1562 2.63281 18.4531 2 17.5391 2C16.6953 2 16.2852 2.57422 15.8398 3.45312C14.0938 6.83984 11.7734 9.58203 10.0039 11.9258C8.50391 13.918 7.77734 15.6406 7.77734 18.3945Z" fill="black"/>
</svg>
