<svg width="28" height="28" viewBox="0 0 28 28" xmlns="http://www.w3.org/2000/svg">
<path d="M25.8711 9.22656C25.8711 5.42969 23.3984 2.25391 20.4102 2.25391H16.6719C15.1836 1.46875 13.3789 1 11.3633 1H9.79297C8.38672 1 7.16797 1.08203 6.35938 1.29297C4.78906 1.66797 3.80469 2.76953 3.80469 4.15234C3.80469 4.43359 3.85156 4.70312 3.92188 4.94922C3.14844 5.54688 2.71484 6.39062 2.71484 7.33984C2.71484 7.79688 2.79688 8.24219 2.97266 8.61719C2.44531 9.15625 2.14062 9.94141 2.14062 10.7617C2.14062 11.2891 2.28125 11.8516 2.50391 12.2617C2.1875 12.7188 2 13.3633 2 14.0312C2 15.7305 3.32422 17.0664 5.01172 17.0664H9.28906C9.54688 17.0664 9.71094 17.1836 9.71094 17.4062C9.71094 18.625 7.78906 21.4844 7.78906 23.7812C7.78906 25.3633 8.89062 26.4883 10.4023 26.4883C11.5156 26.4883 12.2656 25.9141 12.9922 24.5078C14.375 21.8594 16.0156 19.5039 18.6875 16.2461H20.832C23.6211 16.2461 25.8711 13.0938 25.8711 9.22656ZM19.2734 9.28516C19.2734 11.7344 18.7227 13.293 17.1992 15.3438C15.5 17.6055 13.1328 20.3359 11.4453 23.7109C11.0117 24.5547 10.7422 24.7539 10.332 24.7539C9.85156 24.7539 9.52344 24.4141 9.52344 23.7812C9.52344 21.9414 11.4453 19.1758 11.4453 17.4062C11.4453 16.1172 10.3906 15.332 9.04297 15.332H5.01172C4.28516 15.332 3.73438 14.7812 3.73438 14.0312C3.73438 13.4922 3.89844 13.1523 4.34375 12.7188C4.55469 12.5312 4.57812 12.2852 4.40234 12.0742C4.03906 11.5352 3.875 11.207 3.875 10.7617C3.875 10.2227 4.13281 9.77734 4.64844 9.37891C4.92969 9.16797 5.04688 8.875 4.87109 8.52344C4.58984 7.99609 4.44922 7.75 4.44922 7.33984C4.44922 6.74219 4.83594 6.27344 5.65625 5.85156C5.91406 5.71094 5.97266 5.5 5.85547 5.24219C5.58594 4.55078 5.55078 4.44531 5.55078 4.15234C5.55078 3.61328 5.9375 3.17969 6.75781 2.96875C7.42578 2.79297 8.49219 2.72266 9.78125 2.72266H11.2344C16.0625 2.73438 19.2734 5.47656 19.2734 9.28516ZM24.1367 9.22656C24.1367 12.1328 22.5664 14.5117 20.832 14.5117C20.4922 14.5117 20.1523 14.5117 19.8125 14.5117C20.6445 12.9297 21.0078 11.2891 21.0078 9.32031C21.0078 7.22266 20.2578 5.39453 18.9102 4C19.4023 4 19.9062 4 20.4102 4C22.3906 4 24.1367 6.37891 24.1367 9.22656Z" fill="black"/>
</svg>
