<svg width="28" height="28" viewBox="0 0 28 28" fill="none" xmlns="http://www.w3.org/2000/svg">
<g clip-path="url(#clip0_620_19035)">
<path d="M20.1289 17.7031C13.7891 17.7031 9.73438 13.7305 9.73438 7.37891C9.73438 6.06641 10.0508 4.19141 10.4727 3.21875C10.5781 2.94922 10.6016 2.78516 10.6016 2.66797C10.6016 2.35156 10.3672 2 9.91016 2C9.78125 2 9.5 2.03516 9.24219 2.12891C4.90625 3.86328 2 8.52734 2 13.4375C2 20.3281 7.25 25.25 14.1172 25.25C19.168 25.25 23.5391 22.1914 24.9922 18.3711C25.0977 18.1016 25.1211 17.8203 25.1211 17.7148C25.1211 17.2812 24.7578 16.9883 24.4297 16.9883C24.2773 16.9883 24.1484 17.0234 23.9258 17.0938C23.0234 17.3867 21.5703 17.7031 20.1289 17.7031Z" fill="black"/>
</g>
<defs>
<clipPath id="clip0_620_19035">
<rect width="23.1211" height="23.2617" fill="white" transform="translate(2 2)"/>
</clipPath>
</defs>
</svg>
