<svg width="28" height="28" viewBox="0 0 28 28" fill="none" xmlns="http://www.w3.org/2000/svg">
<g clip-path="url(#clip0_620_18995)">
<path d="M12.125 25.3398C16.3555 25.3398 19.8008 23.2305 21.3594 19.5742C21.5352 19.1641 21.5117 18.8008 21.3008 18.5898C21.1367 18.4141 20.8086 18.3906 20.457 18.5195C19.4844 18.9062 18.3828 19.0938 17.1055 19.0938C11.7969 19.0938 8.375 15.7656 8.375 10.5625C8.375 9.23828 8.62109 7.75 9.01953 6.94141C9.21875 6.53125 9.21875 6.16797 9.03125 5.95703C8.83203 5.72266 8.46875 5.6875 8.01172 5.86328C4.41406 7.29297 2 11.0664 2 15.3555C2 21.0508 6.20703 25.3398 12.125 25.3398ZM20.9375 14.6289C21.1602 14.6289 21.3125 14.4766 21.3359 14.2422C21.7227 11.1133 21.875 11.0312 25.0508 10.5156C25.2969 10.4805 25.4492 10.3516 25.4492 10.1289C25.4492 9.90625 25.2969 9.76562 25.0977 9.73047C21.8984 9.12109 21.7227 9.13281 21.3359 6.00391C21.3125 5.76953 21.1602 5.61719 20.9375 5.61719C20.7266 5.61719 20.5742 5.76953 20.5391 5.99219C20.1406 9.16797 20.0234 9.27344 16.7773 9.73047C16.5781 9.75391 16.4258 9.90625 16.4258 10.1289C16.4258 10.3398 16.5781 10.4805 16.7773 10.5156C20.0234 11.1367 20.1289 11.1367 20.5391 14.2656C20.5742 14.4766 20.7266 14.6289 20.9375 14.6289ZM15.3359 6.69531C15.4766 6.69531 15.5469 6.61328 15.5703 6.48438C15.9336 4.52734 15.9219 4.48047 17.9609 4.09375C18.0898 4.07031 18.1836 3.98828 18.1836 3.84766C18.1836 3.70703 18.0898 3.625 17.9609 3.60156C15.9219 3.19141 15.9922 3.14453 15.5703 1.21094C15.5469 1.08203 15.4766 1 15.3359 1C15.1953 1 15.1133 1.08203 15.0898 1.21094C14.6797 3.14453 14.75 3.19141 12.7109 3.60156C12.5703 3.625 12.4883 3.70703 12.4883 3.84766C12.4883 3.98828 12.5703 4.07031 12.7109 4.09375C14.75 4.50391 14.7266 4.52734 15.0898 6.48438C15.1133 6.61328 15.1953 6.69531 15.3359 6.69531Z" fill="black"/>
</g>
<defs>
<clipPath id="clip0_620_18995">
<rect width="23.4492" height="26.2383" fill="white" transform="translate(2 1)"/>
</clipPath>
</defs>
</svg>
