<svg width="28" height="28" viewBox="0 0 28 28" fill="none" xmlns="http://www.w3.org/2000/svg">
<path d="M6.67969 24.5977H20.8945C23.3555 24.5977 24.5742 23.3789 24.5742 20.9648V6.65625C24.5742 4.24219 23.3555 3.02344 20.8945 3.02344H6.67969C4.23047 3.02344 3 4.23047 3 6.65625V20.9648C3 23.3906 4.23047 24.5977 6.67969 24.5977ZM10.1484 19.3359C9.58594 19.3359 9.25781 18.9609 9.25781 18.3633V9.04688C9.25781 8.42578 9.59766 8.02734 10.1953 8.02734C10.5938 8.02734 10.8633 8.17969 11.168 8.61328L16.4297 16.1484H16.5117V9C16.5117 8.41406 16.8516 8.02734 17.4023 8.02734C17.9883 8.02734 18.3281 8.39062 18.3281 9V18.3281C18.3281 18.9727 17.9648 19.3359 17.3672 19.3359C16.9688 19.3359 16.7227 19.1953 16.4062 18.75L11.1445 11.3438H11.0625V18.3633C11.0625 18.9844 10.7227 19.3359 10.1484 19.3359Z" fill="black"/>
</svg>
