<svg width="28" height="28" viewBox="0 0 28 28" fill="none" xmlns="http://www.w3.org/2000/svg">
<path d="M16.3838 19.6387L6.50488 9.75977V22.5332C6.50488 23.5527 7.04395 24.2207 7.91113 24.2207C8.37988 24.2207 8.77832 24.0332 9.24707 23.7637L16.3838 19.6387ZM20.5205 17.248L22.9111 15.8652C23.8838 15.291 24.2236 14.916 24.2236 14.2949C24.2236 13.6738 23.8838 13.2988 22.9111 12.7363L9.24707 4.82617C8.83691 4.58008 8.48535 4.39258 8.0752 4.39258C7.96973 4.39258 7.8877 4.48633 7.87598 4.61523L20.5205 17.248ZM21.5986 22.8613C21.9619 23.2129 22.5361 23.2129 22.876 22.8613C23.2275 22.5098 23.2393 21.9355 22.876 21.584L5.54395 4.26367C5.19238 3.91211 4.61816 3.91211 4.25488 4.26367C3.91504 4.60352 3.91504 5.20117 4.25488 5.54102L21.5986 22.8613Z" fill="black"/>
</svg>