<?xml version="1.0" encoding="utf-8"?>
<svg viewBox="0 0 24 24" width="24" height="24" xmlns="http://www.w3.org/2000/svg">
  <path d="M 12 24 C 18.565 24 24 18.553 24 12 C 24 5.435 18.553 0 11.988 0 C 5.435 0 0 5.435 0 12 C 0 18.553 5.447 24 12 24 Z M 12 22 C 6.447 22 2.012 17.553 2.012 12 C 2.012 6.446 6.435 2 11.988 2 C 17.542 2 22 6.446 22 12 C 22 17.553 17.553 22 12 22 Z" fill="black"/>
  <ellipse style="fill: black;" cx="16" cy="10" rx="2" ry="2"/>
  <ellipse style="fill: black;" cx="8" cy="10" rx="2" ry="2"/>
  <rect x="6.5" y="15" width="11" height="2"/>
</svg>