<svg width="30" height="30" viewBox="0 0 30 30" xmlns="http://www.w3.org/2000/svg">
<path d="M 11.5 13 C 11.5 14.105 10.605 15 9.5 15 C 8.396 15 7.5 14.105 7.5 13 C 7.5 11.895 8.396 11 9.5 11 C 10.605 11 11.5 11.895 11.5 13 Z" fill="black"></path>
<path d="M 22.5 13 C 22.5 14.105 21.605 15 20.5 15 C 19.396 15 18.5 14.105 18.5 13 C 18.5 11.895 19.396 11 20.5 11 C 21.605 11 22.5 11.895 22.5 13 Z" fill="black"></path>
<path fill-rule="evenodd" clip-rule="evenodd" d="M15.0008 27.371C21.8331 27.371 27.3718 21.8323 27.3718 15C27.3718 8.1677 21.8331 2.62902 15.0008 2.62902C8.16849 2.62902 2.62981 8.1677 2.62981 15C2.62981 21.8323 8.16849 27.371 15.0008 27.371ZM15.0008 29.9754C23.2715 29.9754 29.9762 23.2707 29.9762 15C29.9762 6.72932 23.2715 0.0245972 15.0008 0.0245972C6.73011 0.0245972 0.0253906 6.72932 0.0253906 15C0.0253906 23.2707 6.73011 29.9754 15.0008 29.9754Z" fill="black"/>
<path d="M 11.4 19 L 18.6 19 C 19.8 19 21 19 21 20.275 C 21 21.55 19.8 21.55 18.6 21.55 L 11.4 21.55 C 10.2 21.55 9 21.55 9 20.275 C 9 19 10.2 19 11.4 19 Z" fill="black"></path>
</svg>